<?xml version="1.0" standalone="no"?>
<!DOCTYPE svg PUBLIC "-//W3C//DTD SVG 20010904//EN"
 "http://www.w3.org/TR/2001/REC-SVG-20010904/DTD/svg10.dtd">
<svg version="1.0" xmlns="http://www.w3.org/2000/svg"
 width="256.000000pt" height="256.000000pt" viewBox="0 0 256.000000 256.000000"
 preserveAspectRatio="xMidYMid meet">
<metadata>
Created by potrace 1.14, written by Peter Selinger 2001-2017
</metadata>
<g transform="translate(0.000000,256.000000) scale(0.100000,-0.100000)"
fill="#000000" stroke="none">
<path d="M1150 2429 c-240 -21 -495 -140 -675 -316 -173 -169 -285 -375 -331
-612 -23 -115 -21 -344 4 -457 88 -397 377 -722 757 -849 88 -30 94 -31 180
-46 67 -12 310 -15 365 -5 232 44 419 131 579 271 199 173 339 421 381 675 20
117 15 328 -9 438 -91 404 -381 725 -768 851 -153 49 -305 65 -483 50z m-625
-917 c6 -4 19 -34 28 -67 28 -94 112 -253 170 -325 166 -204 402 -294 665
-254 283 43 489 235 602 562 l33 92 38 0 c47 0 49 -9 18 -126 -94 -363 -308
-639 -575 -740 -91 -34 -124 -39 -244 -38 -120 1 -212 26 -319 89 -225 132
-402 396 -476 709 -23 95 -21 106 18 106 17 0 37 -4 42 -8z m822 -9 c84 -40
120 -159 71 -233 -74 -109 -212 -109 -286 0 -20 29 -23 45 -20 92 9 122 126
193 235 141z"/>
</g>
</svg>
