<svg width="384" height="64" fill="none" xmlns="http://www.w3.org/2000/svg"><path d="M113.801 51.111c-1.288 0-2.332-.442-3.132-1.328-.799-.886-1.199-2.215-1.199-4.03 0-.997.133-2.127.378-3.411l3.02-13.93c.466-2.28.422-3.986-.133-5.16-.555-1.151-1.666-1.749-3.287-1.727-2.021 0-3.798.886-5.33 2.68-1.533 1.794-2.777 4.119-3.776 6.998l-3.731 19.222h-5.553L95.3 28.19c.422-2.237.334-3.898-.288-5.005-.622-1.085-1.644-1.639-3.065-1.639-1.088 0-2.177.355-3.265 1.041-1.088.687-2.288 2.06-3.553 4.12-1.266 2.059-2.532 5.026-3.776 8.902L78.51 50.447h-5.619l4.242-22.057c.289-1.727.467-3.034.489-3.942.022-.907-.111-1.594-.4-2.06-.289-.464-.733-.974-1.333-1.483l.067-.31 8.528-3.1h.334l-1.8 9.478h.334c1.51-3.388 3.153-5.824 4.93-7.286 1.777-1.461 3.887-2.192 6.308-2.192 2.154 0 3.797.686 4.908 2.06 1.11 1.372 1.621 3.343 1.488 5.934h.333c1.288-2.458 2.754-4.384 4.398-5.846 1.643-1.44 3.731-2.17 6.263-2.17 2.065 0 3.731.62 4.975 1.838 1.243 1.218 1.887 3.122 1.887 5.713 0 1.329-.2 2.88-.577 4.65l-3.443 15.458c-.266 1.107-.288 1.905-.088 2.392.2.465.555.709 1.066.709.821 0 1.599-.598 2.354-1.772.755-1.174 1.532-2.901 2.354-5.182h1.088c-.821 2.657-1.621 4.717-2.376 6.134-.777 1.417-1.599 2.392-2.465 2.946-.844.487-1.844.752-2.954.752ZM135.011 51.111c-2.066 0-3.687-.62-4.886-1.838-1.177-1.218-1.777-3.078-1.777-5.58 0-1.285.155-2.658.444-4.12l2.31-11.67c.289-1.55.444-2.746.444-3.587 0-.842-.133-1.484-.4-1.971-.266-.465-.688-.975-1.288-1.484l.067-.332 8.528-3.1h.333l-4.641 23.363c-.422 2.103-.356 3.676.222 4.694.577 1.041 1.51 1.55 2.82 1.55 1.333 0 2.71-.62 4.109-1.882 1.399-1.24 2.865-3.3 4.398-6.134 1.532-2.835 2.998-6.555 4.419-11.161l1.932-9.744h5.619l-5.219 26.043c-.311 1.417-.377 2.436-.222 3.056.156.62.555.93 1.199.93.778 0 1.555-.598 2.332-1.816.778-1.196 1.555-2.923 2.332-5.16h1.089c-1.066 3.787-2.221 6.378-3.421 7.773-1.199 1.395-2.554 2.104-4.064 2.104-1.377 0-2.51-.443-3.398-1.351-.888-.908-1.333-2.325-1.333-4.252 0-.82.112-1.86.311-3.167l1.022-5.359h-.333c-1.843 4.761-3.776 8.327-5.819 10.63-1.999 2.392-4.375 3.543-7.129 3.565ZM173.855 51.067c-2.199 0-4.264-.354-6.196-1.063-1.933-.709-3.643-1.727-5.109-3.056l1.666-8.77h.644c0 2.104.422 4.009 1.266 5.736.844 1.727 1.955 3.078 3.354 4.053 1.399.996 2.931 1.483 4.619 1.483 1.733 0 3.11-.487 4.176-1.483 1.066-.997 1.577-2.237 1.577-3.743a5 5 0 0 0-.556-2.28c-.377-.754-.955-1.551-1.754-2.415-.8-.863-1.888-1.882-3.265-3.1-1.843-1.594-3.287-2.901-4.309-3.92-1.021-1.04-1.821-2.081-2.398-3.166-.578-1.064-.866-2.26-.866-3.544 0-2.524.977-4.562 2.931-6.09 1.955-1.528 4.353-2.28 7.196-2.303 1.888 0 3.665.288 5.33.864 1.666.576 3.021 1.306 4.109 2.148l-1.488 7.552h-.644c-.089-2.835-.844-5.05-2.265-6.644-1.422-1.595-3.243-2.392-5.442-2.392-1.643 0-2.976.443-3.997 1.285-1.044.863-1.555 2.015-1.555 3.476 0 .731.155 1.373.489 1.927.333.554.91 1.24 1.776 2.06.866.819 2.288 2.037 4.264 3.676 2.377 1.926 4.087 3.632 5.175 5.093 1.066 1.462 1.622 3.211 1.622 5.293 0 2.923-.933 5.204-2.799 6.843-1.843 1.66-4.375 2.48-7.551 2.48ZM197.108 51.045c-1.421 0-2.554-.443-3.42-1.329-.866-.886-1.288-2.303-1.288-4.296 0-.73.111-1.75.311-3.034l2.709-14.107c.289-1.683.444-2.967.444-3.875 0-.908-.133-1.594-.399-2.104-.267-.487-.689-.996-1.288-1.506l.066-.332 8.529-3.1h.333l-5.153 26.751c-.266 1.462-.311 2.503-.2 3.1.133.599.511.909 1.155.909.777 0 1.533-.598 2.288-1.772.755-1.174 1.532-2.9 2.354-5.182h1.088c-1.11 3.831-2.287 6.422-3.487 7.795-1.177 1.395-2.532 2.082-4.042 2.082Zm4.375-37.448c-.999 0-1.821-.332-2.465-.996a3.338 3.338 0 0 1-.977-2.414c0-.731.178-1.417.555-2.038.356-.62.866-1.107 1.51-1.483a4.368 4.368 0 0 1 2.133-.554c.955 0 1.732.332 2.354.997.622.664.933 1.483.933 2.48 0 .73-.178 1.417-.556 2.037a3.92 3.92 0 0 1-1.488 1.462c-.577.354-1.266.51-1.999.51ZM222.649 51.045c-2.421 0-4.531-.554-6.374-1.661-1.844-1.107-3.265-2.702-4.309-4.74-1.044-2.036-1.554-4.384-1.554-7.063 0-3.699.755-7.087 2.243-10.143 1.51-3.078 3.553-5.514 6.174-7.33 2.598-1.816 5.463-2.702 8.573-2.724 3.664 0 6.729.886 9.172 2.635l-1.554 8.438h-.645c-.177-3.012-.932-5.315-2.265-6.932-1.332-1.616-3.198-2.414-5.552-2.414-1.799 0-3.509.687-5.064 2.038-1.555 1.35-2.843 3.277-3.82 5.735-.977 2.48-1.444 5.315-1.444 8.548 0 3.699.711 6.578 2.133 8.637 1.421 2.06 3.531 3.1 6.329 3.078 1.732 0 3.376-.465 4.953-1.395 1.577-.93 2.931-2.347 4.109-4.296h.71c-.688 2.547-2.065 4.761-4.153 6.666-2.088 1.949-4.642 2.923-7.662 2.923ZM249.1 51.023c-3.02 0-5.308-1.085-6.885-3.278-1.576-2.192-2.354-5.027-2.376-8.503 0-3.477.733-6.91 2.221-10.32 1.488-3.389 3.576-6.179 6.285-8.327 2.71-2.148 5.819-3.233 9.306-3.233 1.51 0 2.909.266 4.197.797a9.373 9.373 0 0 1 3.354 2.348l5.353-3.167h.333l-5.153 26.751c-.311 1.462-.377 2.503-.222 3.1.155.599.555.909 1.199.909.733 0 1.488-.598 2.266-1.816.777-1.196 1.554-2.923 2.332-5.16h1.088c-1.066 3.787-2.199 6.378-3.398 7.773-1.177 1.395-2.532 2.104-4.042 2.104-1.377 0-2.51-.465-3.354-1.373-.866-.93-1.288-2.348-1.288-4.274 0-.908.089-1.816.267-2.702l.444-2.525h-.333c-1.2 3.389-2.777 6.068-4.709 7.995-1.91 1.926-4.22 2.9-6.885 2.9Zm2.177-3.876c2.532 0 4.797-1.771 6.751-5.292 1.955-3.521 3.754-8.327 5.397-14.373.178-1.838 0-3.432-.488-4.739-.489-1.306-1.177-2.303-2.066-2.967-.888-.665-1.843-.997-2.887-.997-2.243 0-4.286 1.063-6.13 3.19-1.843 2.125-3.287 4.76-4.331 7.905-1.021 3.145-1.554 6.156-1.554 9.035 0 2.503.444 4.496 1.332 6.002.889 1.483 2.221 2.236 3.976 2.236ZM301.781 50.978c-1.288 0-2.354-.442-3.176-1.328-.822-.886-1.222-2.193-1.222-3.964 0-1.108.156-2.281.445-3.477l3.487-14.638c.466-1.927.377-3.455-.267-4.54s-1.666-1.639-3.043-1.639c-1.465 0-2.909.554-4.353 1.683-1.443 1.13-2.865 2.946-4.286 5.448-1.421 2.525-2.754 5.824-3.998 9.9l-2.31 11.869h-5.552l4.242-22.057c.289-1.727.466-3.034.489-3.942.022-.908-.111-1.594-.4-2.06-.289-.464-.733-.974-1.333-1.483l.067-.332 8.528-3.1h.334l-2.31 12.047h.333c1.51-3.831 3.331-6.799 5.486-8.903 2.154-2.104 4.53-3.166 7.107-3.166 2.109 0 3.82.597 5.13 1.793s1.977 3.123 1.977 5.736c0 1.506-.223 3.122-.644 4.828l-3.665 15.28c-.267 1.107-.289 1.904-.067 2.392.222.465.578.708 1.111.708.822 0 1.599-.576 2.332-1.75.733-1.15 1.532-2.9 2.398-5.226h1.089c-.778 2.658-1.577 4.717-2.399 6.135-.822 1.417-1.666 2.391-2.51 2.945-.91.576-1.91.841-3.02.841ZM324.19 50.956c-3.02 0-5.308-1.085-6.885-3.277-1.577-2.193-2.354-5.027-2.376-8.504 0-3.477.733-6.91 2.221-10.32 1.488-3.388 3.576-6.178 6.263-8.326 2.687-2.148 5.752-3.234 9.217-3.234 1.421 0 2.709.244 3.842.71 1.133.464 2.177 1.173 3.132 2.125l1.288-7.02c.288-1.639.444-2.901.422-3.831-.023-.93-.178-1.639-.445-2.126-.288-.487-.732-.997-1.332-1.506l.067-.332 8.528-3.1h.333l-7.529 41.832c-.266 1.462-.311 2.502-.155 3.1.155.598.555.908 1.199.908.733 0 1.488-.598 2.265-1.816.778-1.195 1.555-2.923 2.332-5.16h1.089c-1.066 3.787-2.221 6.378-3.421 7.773-1.199 1.396-2.532 2.104-3.997 2.104-1.377 0-2.51-.465-3.398-1.373-.889-.93-1.333-2.347-1.333-4.274 0-.908.089-1.816.267-2.701l.444-2.525h-.333c-1.155 3.388-2.732 6.068-4.709 7.995-1.999 1.904-4.308 2.878-6.996 2.878Zm2.199-3.875c2.532 0 4.819-1.772 6.84-5.315 2.022-3.543 3.82-8.327 5.42-14.35.177-1.838 0-3.433-.511-4.74-.511-1.306-1.222-2.302-2.132-2.967-.911-.664-1.866-.996-2.91-.996-2.243 0-4.286 1.063-6.13 3.189-1.843 2.126-3.287 4.76-4.33 7.906-1.022 3.144-1.555 6.156-1.555 9.035 0 2.502.444 4.495 1.332 6.001.889 1.506 2.221 2.26 3.976 2.237ZM364.989 50.934c-2.577 0-4.82-.553-6.73-1.66-1.887-1.108-3.331-2.68-4.33-4.696-1-2.015-1.489-4.362-1.489-7.02 0-3.742.756-7.152 2.266-10.253 1.51-3.1 3.531-5.536 6.107-7.33 2.554-1.794 5.308-2.68 8.24-2.68 2.576 0 4.82.554 6.73 1.661 1.887 1.108 3.331 2.68 4.33 4.695 1 2.015 1.488 4.363 1.488 7.02 0 3.743-.755 7.153-2.265 10.254-1.51 3.1-3.531 5.536-6.108 7.33-2.554 1.771-5.308 2.68-8.239 2.68Zm.133-1.35c1.888 0 3.62-.953 5.175-2.835 1.554-1.883 2.776-4.385 3.687-7.485.91-3.1 1.354-6.378 1.354-9.855 0-3.654-.555-6.356-1.688-8.127-1.132-1.772-2.687-2.636-4.73-2.636-1.888 0-3.62.953-5.175 2.835-1.555 1.882-2.776 4.385-3.687 7.485-.91 3.1-1.354 6.378-1.354 9.855 0 3.654.577 6.355 1.71 8.127 1.155 1.75 2.709 2.635 4.708 2.635ZM30.338 5.492C14.925 5.492 2.421 17.96 2.421 33.33s12.504 27.836 27.917 27.836c15.413 0 27.917-12.467 27.917-27.836 0-15.37-12.504-27.837-27.917-27.837Zm0 22.123a4.06 4.06 0 0 1 4.064 4.053 4.06 4.06 0 0 1-4.064 4.052 4.06 4.06 0 0 1-4.064-4.052 4.06 4.06 0 0 1 4.064-4.053Zm0 22.057c-10.26 0-18.367-10.231-20.077-21.725-.09-.42 2.043-.42 2.132 0 2.132 8.084 7.684 15.768 17.945 15.768 10.26 0 15.813-7.662 17.945-15.768.089-.42 2.221-.42 2.132 0-1.71 11.494-9.816 21.725-20.077 21.725Z" fill="#fff"/></svg>
